<svg xmlns="http://www.w3.org/2000/svg" width="345" height="296" viewBox="0 0 345 296" fill="none">
<path d="M273 285.5V288.5M273 292.5V289.5M279 285.5V286M279 292.5V292M283.5 286H279M279 286V289M283.5 292H279M279 292V289M279 289H282.5M287 292.5V289.5M287 289.5L285.504 287.256C285.175 286.763 285 286.184 285 285.592V285.5M287 289.5L288.496 287.256C288.825 286.763 289 286.184 289 285.592V285.5M273 289.5L276.146 286.354C276.373 286.127 276.5 285.82 276.5 285.5V285.5M273 289.5V288.5M273 288.5L276.146 291.646C276.373 291.873 276.5 292.18 276.5 292.5V292.5M292 285.5V292.5C292 293.881 290.881 295 289.5 295H272.5C271.119 295 270 293.881 270 292.5V285.5C270 284.119 271.119 283 272.5 283H289.5C290.881 283 292 284.119 292 285.5Z" stroke="#212121"/>
<path d="M83 99L71.0242 49M83 99L34.6227 113M83 99L122 89.5C122.839 128.626 144.411 156.712 195 221L131.5 283.5M71.0242 49L91.5 13H251.5L266.771 39M71.0242 49L34.6227 113M34.6227 113L15 147.5L92.5 283.5H131.5M131.5 283.5H205.5M113.5 171C123.581 199.454 174.586 254.122 205.5 283.5M205.5 283.5H251L330.5 147.5L312.879 117.5M266.771 39L260 103L256.5 97L312.879 117.5M266.771 39L312.879 117.5M220 124C218.243 124.781 215.5 126 215.5 126L213 121.5L222 117.5L224.5 122C224.5 122 221.757 123.219 220 124ZM220 124C214.533 110.527 206 89.5 206 89.5H161.5C176.253 125.605 190.165 150.808 217 189.5L236 153.5L231.5 144" stroke="#212121" stroke-width="25"/>
</svg>